<mxfile host="app.diagrams.net" modified="2022-07-19T07:48:05.234Z" agent="5.0 (Windows NT 10.0; Win64; x64) AppleWebKit/537.36 (KHTML, like Gecko) Chrome/103.0.0.0 Safari/537.36" etag="Hsdij-kg7Hk4bP_igLez" version="20.1.1" type="github">
  <diagram id="7IvgWixZAoFP-BVotiOy" name="Page-1">
    <mxGraphModel dx="828" dy="440" grid="1" gridSize="10" guides="1" tooltips="1" connect="1" arrows="1" fold="1" page="1" pageScale="1" pageWidth="827" pageHeight="1169" math="0" shadow="0">
      <root>
        <mxCell id="0" />
        <mxCell id="1" parent="0" />
        <mxCell id="AtcFVIxwp2P0tSFq3szP-8" value="" style="edgeStyle=orthogonalEdgeStyle;rounded=0;orthogonalLoop=1;jettySize=auto;html=1;" edge="1" parent="1" source="AtcFVIxwp2P0tSFq3szP-1" target="AtcFVIxwp2P0tSFq3szP-6">
          <mxGeometry relative="1" as="geometry" />
        </mxCell>
        <mxCell id="AtcFVIxwp2P0tSFq3szP-1" value="仪表板" style="html=1;" vertex="1" parent="1">
          <mxGeometry x="70" y="155" width="80" height="40" as="geometry" />
        </mxCell>
        <mxCell id="AtcFVIxwp2P0tSFq3szP-3" value="PanelPdfTemplateController" style="swimlane;fontStyle=1;align=center;verticalAlign=top;childLayout=stackLayout;horizontal=1;startSize=26;horizontalStack=0;resizeParent=1;resizeParentMax=0;resizeLast=0;collapsible=1;marginBottom=0;" vertex="1" parent="1">
          <mxGeometry x="250" y="90" width="300" height="110" as="geometry" />
        </mxCell>
        <mxCell id="AtcFVIxwp2P0tSFq3szP-4" value="+ panelPdfTemplateService PanelPdfTemplateService" style="text;strokeColor=none;fillColor=none;align=left;verticalAlign=top;spacingLeft=4;spacingRight=4;overflow=hidden;rotatable=0;points=[[0,0.5],[1,0.5]];portConstraint=eastwest;" vertex="1" parent="AtcFVIxwp2P0tSFq3szP-3">
          <mxGeometry y="26" width="300" height="26" as="geometry" />
        </mxCell>
        <mxCell id="AtcFVIxwp2P0tSFq3szP-5" value="" style="line;strokeWidth=1;fillColor=none;align=left;verticalAlign=middle;spacingTop=-1;spacingLeft=3;spacingRight=3;rotatable=0;labelPosition=right;points=[];portConstraint=eastwest;" vertex="1" parent="AtcFVIxwp2P0tSFq3szP-3">
          <mxGeometry y="52" width="300" height="8" as="geometry" />
        </mxCell>
        <mxCell id="AtcFVIxwp2P0tSFq3szP-6" value="+ queryAll()  List&lt;PanelPdfTemplate&gt;" style="text;strokeColor=none;fillColor=none;align=left;verticalAlign=top;spacingLeft=4;spacingRight=4;overflow=hidden;rotatable=0;points=[[0,0.5],[1,0.5]];portConstraint=eastwest;" vertex="1" parent="AtcFVIxwp2P0tSFq3szP-3">
          <mxGeometry y="60" width="300" height="50" as="geometry" />
        </mxCell>
      </root>
    </mxGraphModel>
  </diagram>
</mxfile>
